<svg xmlns="http://www.w3.org/2000/svg" height="511pt" version="1.1" viewBox="1 -26 511.99917 511" width="511pt">
<g id="surface1">
<path d="M 234.304688 408.363281 C 234.304688 432.328125 214.878906 451.753906 190.914062 451.753906 C 166.953125 451.753906 147.527344 432.328125 147.527344 408.363281 C 147.527344 384.398438 166.953125 364.972656 190.914062 364.972656 C 214.878906 364.972656 234.304688 384.398438 234.304688 408.363281 Z M 234.304688 408.363281 " style=" stroke:none;fill-rule:nonzero;fill:rgb(100%,46.666667%,32.941176%);fill-opacity:1;" />
<path d="M 225.625 78.601562 L 225.625 95.957031 L 225.625 78.601562 L 74.804688 78.601562 L 100.835938 304.226562 L 286.371094 304.226562 L 286.371094 78.601562 Z M 225.625 78.601562 " style=" stroke:none;fill-rule:nonzero;fill:rgb(100%,46.666667%,32.941176%);fill-opacity:1;" />
<path d="M 468.609375 78.601562 L 286.371094 78.601562 L 286.371094 304.226562 L 377.09375 304.226562 C 425.582031 304.230469 467.652344 270.765625 478.5625 223.523438 L 512 78.601562 Z M 468.609375 78.601562 " style=" stroke:none;fill-rule:nonzero;fill:rgb(100%,57.254902%,46.27451%);fill-opacity:1;" />
<path d="M 286.371094 78.601562 L 286.371094 69.921875 L 286.371094 78.601562 L 329.761719 78.601562 L 329.761719 9.175781 L 225.625 9.175781 L 225.625 78.601562 Z M 286.371094 78.601562 " style=" stroke:none;fill-rule:nonzero;fill:rgb(20%,54.117647%,95.294118%);fill-opacity:1;" />
<path d="M 121.492188 9.175781 L 225.625 9.175781 L 225.625 78.601562 L 121.492188 78.601562 Z M 121.492188 9.175781 " style=" stroke:none;fill-rule:nonzero;fill:rgb(0%,42.745098%,94.117647%);fill-opacity:1;" />
<path d="M 399.1875 43.890625 L 468.609375 43.890625 L 468.609375 78.601562 L 399.1875 78.601562 Z M 399.1875 43.890625 " style=" stroke:none;fill-rule:nonzero;fill:rgb(57.647059%,78.039216%,93.72549%);fill-opacity:1;" />
<path d="M 329.761719 43.890625 L 399.1875 43.890625 L 399.1875 78.601562 L 329.761719 78.601562 Z M 329.761719 43.890625 " style=" stroke:none;fill-rule:nonzero;fill:rgb(47.058824%,72.54902%,92.156863%);fill-opacity:1;" />
<path d="M 190.914062 460.429688 C 162.160156 460.429688 138.847656 437.121094 138.847656 408.363281 C 138.847656 379.609375 162.160156 356.296875 190.914062 356.296875 C 219.671875 356.296875 242.984375 379.609375 242.984375 408.363281 C 242.953125 437.109375 219.660156 460.402344 190.914062 460.429688 Z M 190.914062 373.652344 C 171.742188 373.652344 156.203125 389.191406 156.203125 408.363281 C 156.203125 427.535156 171.746094 443.074219 190.914062 443.074219 C 210.085938 443.074219 225.625 427.535156 225.625 408.363281 C 225.625 389.191406 210.085938 373.652344 190.914062 373.652344 Z M 190.914062 373.652344 " style=" stroke:none;fill-rule:nonzero;fill:rgb(100%,47.45098%,33.72549%);fill-opacity:1;" />
<path d="M 147.527344 417.042969 L 143.792969 417.042969 C 121.746094 417.054688 103.191406 400.527344 100.664062 378.625 L 92.246094 305.21875 C 91.699219 300.453125 95.121094 296.148438 99.882812 295.601562 C 104.648438 295.054688 108.953125 298.476562 109.5 303.238281 L 117.90625 376.65625 C 119.433594 389.792969 130.566406 399.699219 143.792969 399.6875 L 147.527344 399.6875 C 152.320312 399.6875 156.203125 403.570312 156.203125 408.363281 C 156.203125 413.15625 152.316406 417.042969 147.527344 417.042969 Z M 147.527344 417.042969 " style=" stroke:none;fill-rule:nonzero;fill:rgb(100%,47.45098%,33.72549%);fill-opacity:1;" />
<path d="M 100.828125 312.90625 C 96.429688 312.902344 92.730469 309.605469 92.222656 305.234375 L 61.683594 40.886719 C 60.160156 27.757812 49.039062 17.855469 35.824219 17.855469 L 8.679688 17.855469 C 3.886719 17.855469 0 13.96875 0 9.175781 C 0 4.386719 3.886719 0.5 8.679688 0.5 L 35.824219 0.5 C 57.847656 0.503906 76.375 17.003906 78.917969 38.882812 L 109.453125 303.222656 C 110.007812 307.980469 106.601562 312.289062 101.84375 312.847656 C 101.507812 312.886719 101.167969 312.90625 100.828125 312.90625 Z M 100.828125 312.90625 " style=" stroke:none;fill-rule:nonzero;fill:rgb(100%,47.45098%,33.72549%);fill-opacity:1;" />
<path d="M 416.542969 408.363281 C 416.542969 427.535156 401 443.074219 381.832031 443.074219 C 362.660156 443.074219 347.117188 427.535156 347.117188 408.363281 C 347.117188 389.191406 362.660156 373.652344 381.832031 373.652344 C 401 373.652344 416.542969 389.191406 416.542969 408.363281 Z M 416.542969 408.363281 " style=" stroke:none;fill-rule:nonzero;fill:rgb(100%,57.254902%,46.27451%);fill-opacity:1;" />
<path d="M 381.832031 356.296875 C 356.449219 356.34375 334.792969 374.664062 330.542969 399.683594 L 338.441406 399.683594 C 338.734375 399.726562 339.023438 399.785156 339.308594 399.859375 C 344.003906 376.359375 366.863281 361.117188 390.363281 365.816406 C 413.859375 370.511719 429.101562 393.367188 424.40625 416.867188 C 419.707031 440.367188 396.851562 455.609375 373.351562 450.910156 C 356.171875 447.476562 342.742188 434.046875 339.308594 416.867188 C 339.023438 416.945312 338.734375 417 338.441406 417.042969 L 330.542969 417.042969 C 335.335938 445.394531 362.207031 464.496094 390.5625 459.703125 C 418.917969 454.910156 438.015625 428.039062 433.222656 399.683594 C 428.984375 374.613281 407.257812 356.269531 381.832031 356.296875 Z M 381.832031 356.296875 " style=" stroke:none;fill-rule:nonzero;fill:rgb(100%,57.254902%,46.27451%);fill-opacity:1;" />
<path d="M 347.117188 408.363281 C 347.117188 389.191406 362.660156 373.652344 381.828125 373.652344 C 401 373.652344 416.542969 389.191406 416.542969 408.363281 C 416.542969 427.535156 401 443.074219 381.828125 443.074219 C 362.660156 443.074219 347.117188 427.535156 347.117188 408.363281 C 347.089844 412.785156 343.710938 416.460938 339.308594 416.867188 C 344.003906 440.367188 366.863281 455.609375 390.359375 450.910156 C 413.859375 446.214844 429.101562 423.359375 424.40625 399.859375 C 419.707031 376.359375 396.851562 361.117188 373.351562 365.816406 C 356.171875 369.25 342.742188 382.679688 339.308594 399.859375 C 343.710938 400.265625 347.089844 403.941406 347.117188 408.363281 Z M 347.117188 408.363281 " style=" stroke:none;fill-rule:nonzero;fill:rgb(100%,57.254902%,46.27451%);fill-opacity:1;" />
<path d="M 330.542969 399.683594 L 286.371094 399.683594 L 286.371094 417.042969 L 330.542969 417.042969 C 329.503906 411.304688 329.503906 405.425781 330.542969 399.683594 Z M 330.542969 399.683594 " style=" stroke:none;fill-rule:nonzero;fill:rgb(100%,57.254902%,46.27451%);fill-opacity:1;" />
<path d="M 234.304688 399.683594 C 229.511719 399.683594 225.625 403.570312 225.625 408.363281 C 225.625 413.15625 229.511719 417.042969 234.304688 417.042969 L 286.371094 417.042969 L 286.371094 399.683594 Z M 234.304688 399.683594 " style=" stroke:none;fill-rule:nonzero;fill:rgb(100%,47.45098%,33.72549%);fill-opacity:1;" />
<path d="M 339.308594 416.867188 C 338.164062 411.257812 338.164062 405.472656 339.308594 399.859375 C 339.023438 399.785156 338.734375 399.726562 338.441406 399.683594 L 330.542969 399.683594 C 329.5 405.421875 329.5 411.300781 330.542969 417.042969 L 338.441406 417.042969 C 338.734375 417 339.023438 416.945312 339.308594 416.867188 Z M 339.308594 416.867188 " style=" stroke:none;fill-rule:nonzero;fill:rgb(100%,57.254902%,46.27451%);fill-opacity:1;" />
<path d="M 339.308594 416.867188 C 344.003906 416.5 347.515625 412.394531 347.148438 407.699219 C 346.820312 403.511719 343.492188 400.1875 339.308594 399.859375 C 338.164062 405.472656 338.164062 411.257812 339.308594 416.867188 Z M 339.308594 416.867188 " style=" stroke:none;fill-rule:nonzero;fill:rgb(100%,57.254902%,46.27451%);fill-opacity:1;" />
</g>
</svg>