<svg xmlns="http://www.w3.org/2000/svg" xmlns:xlink="http://www.w3.org/1999/xlink" viewBox="0 0 791.37 579.76"><defs><style>.a{fill:none;}.b{clip-path:url(#a);}.c{opacity:0.3;}.d{fill:#fff;}</style><clipPath id="a"><rect class="a" width="791.37" height="579.76"/></clipPath></defs><g class="b"><g transform="translate(-981.38 -123.17)"><g class="c"><path class="d" d="M1154.39,702.86l-38.87-8.2a340.59,340.59,0,0,1-73-24,280.079,280.079,0,0,1-61.14-38.08L1031,544.27q32.82,26.94,75.78,41.6A271.939,271.939,0,0,0,1195,600.52q52.34,0,81.25-17.78t28.9-50.19v-.39q0-22.65-12.89-35.94t-33.59-19.53q-20.71-6.24-53.13-11.33a6.86,6.86,0,0,0-2.15-.39,6.8,6.8,0,0,1-2.14-.39l-8.6-1.17q-57-9-94.53-22.46t-63.67-47.27q-26.18-33.78-26.17-95.9v-.39q0-55.08,24.61-94.14t71.48-59.57q46.88-20.51,113.28-20.51a289,289,0,0,1,62.31,7,338.607,338.607,0,0,1,62.3,20.32,347.39,347.39,0,0,1,57.81,32l-45.31,90.62A287.368,287.368,0,0,0,1286.23,238q-35.74-12.5-68.56-12.5-49.22,0-76.17,16.21t-27,45.5v.4q0,24.6,14.06,38.86a83.7,83.7,0,0,0,34.77,20.9q20.68,6.64,58.2,14.06a24.465,24.465,0,0,0,3.12.59,26.874,26.874,0,0,1,3.13.59,45.524,45.524,0,0,1,4.49,1,45.523,45.523,0,0,0,4.49,1q53.91,10.55,90,25.58t60.35,48.44q24.22,33.4,24.22,91.21v.78q0,54.3-25.39,93t-74,59q-48.63,20.31-117,20.31Z"/><path d="M1498.34,682.55q-40.83-20.31-63.48-57.42l87.5-63.68a97.266,97.266,0,0,0,33.79,27.74,91.691,91.691,0,0,0,41.21,9.76q30.86,0,47.66-21.68t16.79-61.13V129h110.94V516.5q0,59-21.29,100.78T1689.55,681q-40.63,21.88-98,21.88Q1539.15,702.86,1498.34,682.55Z"/></g></g></g></svg>