<?xml version="1.0" encoding="utf-8"?>
<!-- Generator: Adobe Illustrator 22.1.0, SVG Export Plug-In . SVG Version: 6.00 Build 0)  -->
<svg version="1.1" xmlns="http://www.w3.org/2000/svg" xmlns:xlink="http://www.w3.org/1999/xlink" x="0px" y="0px"
	 viewBox="0 0 638.8 550.1" style="enable-background:new 0 0 638.8 550.1;" xml:space="preserve">
<style type="text/css">
	.st0{fill:#FFFFFF;}
</style>
<g id="Layer_1">
	<title>Asset 1</title>
	<g id="_Group_">
		<path class="st0" d="M636.4,182.1c-0.3-1.7-0.5-3.4-0.8-5c-2.7-15.1-7-29.6-12.8-43.3c-0.7-1.5-1.3-3.1-2-4.6
			c-1-2.3-2.1-4.5-3.2-6.7c-1.1-2.2-2.2-4.4-3.4-6.6c-1.2-2.2-2.4-4.3-3.7-6.4c-1.3-2.1-2.5-4.2-3.9-6.3c-0.4-0.7-0.9-1.4-1.3-2.1
			c-1.8-2.7-3.7-5.4-5.6-8.1c-1-1.3-1.9-2.6-2.9-3.9s-2-2.6-3-3.9c-1-1.3-2.1-2.5-3.1-3.8c-1.4-1.6-2.8-3.3-4.2-4.8
			c-1.4-1.6-2.9-3.2-4.4-4.7c-1-1-2-2-3-3.1c-0.6-0.6-1.2-1.2-1.7-1.7c-1.2-1.2-2.3-2.3-3.5-3.4c-1.2-1.1-2.4-2.2-3.6-3.3
			c-1-0.9-2.1-1.8-3.1-2.7c-2.1-1.8-4.2-3.5-6.4-5.2c-1.1-0.9-2.2-1.7-3.3-2.5c-1.7-1.2-3.3-2.5-5-3.7c-1.7-1.2-3.4-2.4-5.1-3.5
			c-1.6-1.1-3.3-2.1-4.9-3.2c-1-0.6-2.1-1.3-3.1-1.9c-0.8-0.5-1.6-0.9-2.4-1.4c-2.4-1.4-4.8-2.7-7.2-4c-3.1-1.6-6.3-3.2-9.5-4.7
			c-1.3-0.6-2.6-1.2-3.9-1.7c-0.7-0.3-1.3-0.6-2-0.8c-1.3-0.6-2.6-1.1-3.9-1.6c-0.7-0.3-1.3-0.5-2-0.8c-1.1-0.4-2.2-0.8-3.2-1.2
			c-2.2-0.8-4.4-1.5-6.6-2.3c-1.1-0.4-2.2-0.7-3.3-1.1c-2.2-0.7-4.4-1.3-6.7-2c-2.3-0.6-4.5-1.2-6.8-1.7c-1.4-0.3-2.8-0.6-4.2-1
			c-2.1-0.5-4.3-0.9-6.4-1.3c-1.4-0.3-2.9-0.5-4.3-0.7c-0.7-0.1-1.4-0.2-2.2-0.3c-2-0.3-4-0.6-6-0.8c-1.5-0.2-2.9-0.3-4.3-0.5
			c-1.5-0.1-2.9-0.3-4.4-0.4c-0.7,0-1.5-0.1-2.2-0.2c-4.3-0.3-8.6-0.4-13-0.4c0,0,0,0-0.1,0H204.1C91.4,9-0.1,100.4-0.1,213.2h638.8
			C638.8,202.6,637.9,192.3,636.4,182.1z M216.8,88.8c-2.6,2.5-6.1,4.1-10,4.1h-32.9c-7.8,0-14.1-6.3-14.1-14.1
			c0-3.9,1.6-7.4,4.1-10c2.6-2.5,6.1-4.1,10-4.1h32.9c7.8,0,14.1,6.3,14.1,14.1C220.9,82.7,219.4,86.2,216.8,88.8z M286.8,153
			c-2.6,2.5-6.1,4.1-10,4.1h-32.9c-7.8,0-14.1-6.3-14.1-14.1c0-3.9,1.6-7.4,4.1-10c2.6-2.5,6.1-4.1,10-4.1h32.9
			c7.8,0,14.1,6.3,14.1,14.1C290.9,146.9,289.4,150.4,286.8,153z M350.8,88.8c-2.6,2.5-6.1,4.1-10,4.1h-32.9
			c-7.8,0-14.1-6.3-14.1-14.1c0-3.9,1.6-7.4,4.1-10c2.6-2.5,6.1-4.1,10-4.1h32.9c7.8,0,14.1,6.3,14.1,14.1
			C354.9,82.7,353.4,86.2,350.8,88.8z M432.2,153c-2.6,2.5-6.1,4.1-10,4.1h-32.9c-7.8,0-14.1-6.3-14.1-14.1c0-3.9,1.6-7.4,4.1-10
			c2.6-2.5,6.1-4.1,10-4.1h32.9c7.8,0,14.1,6.3,14.1,14.1C436.4,146.9,434.8,150.4,432.2,153z M483.8,87.8c-2.6,2.5-6.1,4.1-10,4.1
			h-32.9c-7.8,0-14.1-6.3-14.1-14.1c0-3.9,1.6-7.4,4.1-10c2.6-2.5,6.1-4.1,10-4.1h32.9c7.8,0,14.1,6.3,14.1,14.1
			C487.9,81.7,486.4,85.2,483.8,87.8z"/>
		<path class="st0" d="M636.4,182.1c-0.3-1.7-0.5-3.4-0.8-5c-2.7-15.1-7-29.6-12.8-43.3c-0.7-1.5-1.3-3.1-2-4.6
			c-1-2.3-2.1-4.5-3.2-6.7c-1.1-2.2-2.2-4.4-3.4-6.6c-1.2-2.2-2.4-4.3-3.7-6.4c-1.3-2.1-2.5-4.2-3.9-6.3c-0.4-0.7-0.9-1.4-1.3-2.1
			c-1.8-2.7-3.7-5.4-5.6-8.1c-1-1.3-1.9-2.6-2.9-3.9c-1-1.3-2-2.6-3-3.9c-1-1.3-2.1-2.5-3.1-3.8c-1.4-1.6-2.8-3.3-4.2-4.8
			c-1.4-1.6-2.9-3.2-4.4-4.7c-1-1-2-2-3-3.1c-0.6-0.6-1.2-1.2-1.7-1.7c-1.2-1.2-2.3-2.3-3.5-3.4c-1.2-1.1-2.4-2.2-3.6-3.3
			c-1-0.9-2.1-1.8-3.1-2.7c-2.1-1.8-4.2-3.5-6.4-5.2c-1.1-0.9-2.2-1.7-3.3-2.5c-1.7-1.2-3.3-2.5-5-3.7c-1.7-1.2-3.4-2.4-5.1-3.5
			c-1.6-1.1-3.3-2.1-4.9-3.2c-1-0.6-2.1-1.3-3.1-1.9c-0.8-0.5-1.6-0.9-2.4-1.4c-2.4-1.4-4.8-2.7-7.2-4c-3.1-1.6-6.3-3.2-9.5-4.7
			c-1.3-0.6-2.6-1.2-3.9-1.7c-0.7-0.3-1.3-0.6-2-0.8c-1.3-0.6-2.6-1.1-3.9-1.6c-0.7-0.3-1.3-0.5-2-0.8c-1.1-0.4-2.2-0.8-3.2-1.2
			c-2.2-0.8-4.4-1.6-6.6-2.3c-1.1-0.4-2.2-0.7-3.3-1.1c-2.2-0.7-4.4-1.3-6.7-2c-2.3-0.6-4.5-1.2-6.8-1.7c-1.4-0.3-2.8-0.7-4.2-1
			c-2.1-0.5-4.3-0.9-6.4-1.3c-1.4-0.3-2.9-0.5-4.3-0.7c-0.7-0.1-1.4-0.2-2.2-0.3c-2-0.3-4-0.6-6-0.8c-1.5-0.2-2.9-0.3-4.3-0.5
			c-1.5-0.1-2.9-0.3-4.4-0.4c-0.7,0-1.5-0.1-2.2-0.2c-4.3-0.3-8.6-0.4-13-0.4c0,0,0,0-0.1,0H204.1C91.4,9-0.1,100.4-0.1,213.2h638.8
			C638.8,202.6,637.9,192.3,636.4,182.1z M216.8,88.8c-2.6,2.5-6.1,4.1-10,4.1h-32.9c-7.8,0-14.1-6.3-14.1-14.1
			c0-3.9,1.6-7.4,4.1-10c2.6-2.5,6.1-4.1,10-4.1h32.9c7.8,0,14.1,6.3,14.1,14.1C220.9,82.7,219.4,86.2,216.8,88.8z M286.8,153
			c-2.6,2.5-6.1,4.1-10,4.1h-32.9c-7.8,0-14.1-6.3-14.1-14.1c0-3.9,1.6-7.4,4.1-10c2.6-2.5,6.1-4.1,10-4.1h32.9
			c7.8,0,14.1,6.3,14.1,14.1C290.9,146.9,289.4,150.4,286.8,153z M350.8,88.8c-2.6,2.5-6.1,4.1-10,4.1h-32.9
			c-7.8,0-14.1-6.3-14.1-14.1c0-3.9,1.6-7.4,4.1-10c2.6-2.5,6.1-4.1,10-4.1h32.9c7.8,0,14.1,6.3,14.1,14.1
			C354.9,82.7,353.4,86.2,350.8,88.8z M432.2,153c-2.6,2.5-6.1,4.1-10,4.1h-32.9c-7.8,0-14.1-6.3-14.1-14.1c0-3.9,1.6-7.4,4.1-10
			c2.6-2.5,6.1-4.1,10-4.1h32.9c7.8,0,14.1,6.3,14.1,14.1C436.4,146.9,434.8,150.4,432.2,153z M483.8,87.8c-2.6,2.5-6.1,4.1-10,4.1
			h-32.9c-7.8,0-14.1-6.3-14.1-14.1c0-3.9,1.6-7.4,4.1-10c2.6-2.5,6.1-4.1,10-4.1h32.9c7.8,0,14.1,6.3,14.1,14.1
			C487.9,81.7,486.4,85.2,483.8,87.8z"/>
	</g>
	<g id="_Group_3">
		<path id="_Path_19" class="st0" d="M594.3,376.9H44.4c-8.2,0-14.9-6.7-14.9-14.9v-23.9c0-8.2,6.7-14.9,14.9-14.9h549.9
			c8.2,0,14.9,6.7,14.9,14.9V362C609.2,370.2,602.5,376.9,594.3,376.9z"/>
		<path id="_Path_20" class="st0" d="M609.1,340.1V360c0,9.3-5.9,16.9-13.1,16.9H42.6c-7.2,0-13.1-7.6-13.1-16.9v-19.9
			c0-9.3,5.9-16.9,13.1-16.9h553.5C603.3,323.2,609.1,330.8,609.1,340.1z"/>
	</g>
	<g id="_Group_5">
		<path id="_Path_26" class="st0" d="M573.5,411.2H65c-5.2,0-9.5-4.3-9.5-9.5v-4.2c0-5.2,4.3-9.5,9.5-9.5h508.5
			c5.2,0,9.5,4.3,9.5,9.5v4.2C583,406.9,578.7,411.2,573.5,411.2z"/>
	</g>
	<g id="_Group_6">
		<path id="_Path_28" class="st0" d="M573.6,247.4H65.1c-5.2,0-9.5-4.3-9.5-9.5v-4.2c0-5.2,4.3-9.5,9.5-9.5h508.5
			c5.2,0,9.5,4.3,9.5,9.5v4.2C583.1,243.1,578.8,247.4,573.6,247.4z"/>
	</g>
	<g id="_Group_7">
		<path id="_Path_30" class="st0" d="M594.3,312.2H44.4c-8.2,0-14.9-6.7-14.9-14.9v-23.9c0-8.2,6.7-14.9,14.9-14.9h549.9
			c8.2,0,14.9,6.7,14.9,14.9v23.9C609.1,305.5,602.5,312.1,594.3,312.2z"/>
		<path id="_Path_31" class="st0" d="M609.1,275.4v19.9c0,9.3-5.9,16.9-13.1,16.9H42.6c-7.2,0-13.1-7.6-13.1-16.9v-19.9
			c0-9.3,5.9-16.9,13.1-16.9h553.5C603.3,258.5,609.1,266,609.1,275.4z"/>
	</g>
	<g id="_Group_8">
		<path id="_Path_34" class="st0" d="M619.3,477.1v9.2c0,30.3-23,54.8-51.5,54.8H70.9c-28.4,0-51.5-24.5-51.5-54.8v-9.2
			c0-30.3,23.1-54.8,51.5-54.8h496.8C596.3,422.3,619.3,446.9,619.3,477.1z"/>
	</g>
</g>
<g id="Layer_2">
</g>
</svg>
