<svg xmlns="http://www.w3.org/2000/svg" viewBox="0 0 483.29 594.3"><defs><style>.cls-1{isolation:isolate;}.cls-2{fill:#fff;}.cls-3{opacity:0.51;}.cls-3,.cls-4,.cls-5{mix-blend-mode:screen;}.cls-4{opacity:0.7;}.cls-5{opacity:0.49;}.cls-6{fill:none;stroke:#fff;stroke-miterlimit:1;stroke-width:0.59px;}.cls-7{opacity:0.58;}</style></defs><title>emaily-logo</title><g class="cls-1"><g id="Layer_1" data-name="Layer 1"><path class="cls-2" d="M628.5,634.5V427.79L540.21,339.5H461.5V169A11.51,11.51,0,0,1,473,157.5h73.57c-.05.79-.07,1.62-.07,2.5v25A10.51,10.51,0,0,0,557,195.5H741A10.51,10.51,0,0,0,751.5,185V160c0-.88,0-1.71-.07-2.5H825A11.51,11.51,0,0,1,836.5,169V623A11.51,11.51,0,0,1,825,634.5Z" transform="translate(-353.71 -84.75)"/><path class="cls-2" d="M825,158a11,11,0,0,1,11,11V623a11,11,0,0,1-11,11H629V427.59l-.29-.3-88-88-.3-.29H462V169a11,11,0,0,1,11-11h73c0,.64,0,1.3,0,2v25a11,11,0,0,0,11,11H741a11,11,0,0,0,11-11V160c0-.7,0-1.36,0-2h73m0-1H750.9c.07,1,.1,2,.1,3v25a10,10,0,0,1-10,10H557a10,10,0,0,1-10-10V160c0-1,0-2,.1-3H473a12,12,0,0,0-12,12V340h79l88,88V635H825a12,12,0,0,0,12-12V169a12,12,0,0,0-12-12Z" transform="translate(-353.71 -84.75)"/><path class="cls-2" d="M565,181.75a3.47,3.47,0,0,1-3.46-3.46V152.05c0-.92,0-1.75.08-2.55a33.19,33.19,0,0,1,13.24-25.22c7.51-5.69,17.93-8.83,29.32-8.83h14.3V115c0-20.4,15.84-29.7,30.56-29.7s30.56,9.3,30.56,29.7v.5h14.3c11.39,0,21.81,3.14,29.32,8.83a33.19,33.19,0,0,1,13.24,25.21c.05.81.08,1.65.08,2.56v26.24a3.47,3.47,0,0,1-3.46,3.46Zm84-77.65A21.26,21.26,0,0,0,638.43,107a13.74,13.74,0,0,0-5.1,5.11c-3.78,6.62-3.94,13.88-.44,19.9A18.68,18.68,0,0,0,649,141.33a21.26,21.26,0,0,0,10.57-2.94,13.74,13.74,0,0,0,5.1-5.11c3.78-6.62,3.94-13.88.44-19.9A18.68,18.68,0,0,0,649,104.1Z" transform="translate(-353.71 -84.75)"/><path class="cls-2" d="M649,85.75c14.48,0,30.06,9.14,30.06,29.2v1h14.8c11.28,0,21.59,3.1,29,8.73a32.7,32.7,0,0,1,13,24.85c.05.79.08,1.61.08,2.52v26.24a3,3,0,0,1-3,3H565a3,3,0,0,1-3-3V152.05c0-.91,0-1.73.08-2.53a32.7,32.7,0,0,1,13-24.84c7.43-5.63,17.74-8.73,29-8.73h14.8v-1c0-20.06,15.58-29.2,30.06-29.2m0,56.08a21.64,21.64,0,0,0,10.81-3,14.24,14.24,0,0,0,5.3-5.29c3.87-6.78,4-14.22.43-20.41A19.19,19.19,0,0,0,649,103.6h0a21.64,21.64,0,0,0-10.81,3,14.24,14.24,0,0,0-5.3,5.29c-3.87,6.78-4,14.22-.43,20.41A19.19,19.19,0,0,0,649,141.83m0-57.08c-15.53,0-31.06,10.07-31.06,30.2h-13.8c-22.94,0-41.71,12.32-43,34.51-.06.85-.09,1.71-.09,2.59v26.24a4,4,0,0,0,4,4H733a4,4,0,0,0,4-4V152.05c0-.88,0-1.74-.09-2.59-1.34-22.19-20.11-34.51-43-34.51h-13.8c0-20.13-15.53-30.2-31.06-30.2Zm0,56.08c-13.32,0-23.27-14.35-15.24-28.43a13.2,13.2,0,0,1,4.92-4.92A20.71,20.71,0,0,1,649,104.6c13.32,0,23.27,14.35,15.24,28.43a13.2,13.2,0,0,1-4.92,4.92A20.71,20.71,0,0,1,649,140.83Z" transform="translate(-353.71 -84.75)"/><path class="cls-2" d="M534.56,357.31H364.83A10.86,10.86,0,0,0,354,368.14V667.86a10.86,10.86,0,0,0,10.83,10.83H603.17A10.86,10.86,0,0,0,614,667.86V436.75Zm37.92,246.17A12,12,0,0,1,564,607H394a12,12,0,0,1,0-24H564a12,12,0,0,1,8.48,20.48Zm0-61A12,12,0,0,1,564,546H394a12,12,0,0,1,0-24H564a12,12,0,0,1,8.48,20.48Zm0-61A12,12,0,0,1,564,485H394a12,12,0,0,1,0-24H564a12,12,0,0,1,8.48,20.48Z" transform="translate(-353.71 -84.75)"/><g class="cls-3"><path class="cls-2" d="M534.56,357.31H364.83A10.86,10.86,0,0,0,354,368.14V667.86a10.86,10.86,0,0,0,10.83,10.83H603.17A10.86,10.86,0,0,0,614,667.86V436.75Zm37.92,246.17A12,12,0,0,1,564,607H394a12,12,0,0,1,0-24H564a12,12,0,0,1,8.48,20.48Zm0-61A12,12,0,0,1,564,546H394a12,12,0,0,1,0-24H564a12,12,0,0,1,8.48,20.48Zm0-61A12,12,0,0,1,564,485H394a12,12,0,0,1,0-24H564a12,12,0,0,1,8.48,20.48Z" transform="translate(-353.71 -84.75)"/></g><g class="cls-4"><path class="cls-2" d="M534.56,357.31H364.83A10.86,10.86,0,0,0,354,368.14V667.86a10.86,10.86,0,0,0,10.83,10.83H603.17A10.86,10.86,0,0,0,614,667.86V436.75Zm37.92,246.17A12,12,0,0,1,564,607H394a12,12,0,0,1,0-24H564a12,12,0,0,1,8.48,20.48Zm0-61A12,12,0,0,1,564,546H394a12,12,0,0,1,0-24H564a12,12,0,0,1,8.48,20.48Zm0-61A12,12,0,0,1,564,485H394a12,12,0,0,1,0-24H564a12,12,0,0,1,8.48,20.48Z" transform="translate(-353.71 -84.75)"/></g><g class="cls-5"><path class="cls-2" d="M364.83,678c-13.82-.87-10.47-19.13-10.47-28.58v-263c0-9.37-3.3-27.56,10.47-28.32,12.83-.72,25.9,0,38.74,0H531.73c3.21,0,3.35.66,5.75,3.06L557,380.57l49.67,49.67c2,2,4,4,6,6.06,1,1,.77.45,1,1.11,1,3.38,0,8.52,0,12V665c0,6.7-2.94,12.64-10.61,13-11,.55-22.1,0-33.07,0H364.83s0,.72,0,.72H596.06c3.39,0,7.67.55,10.89-.71,6-2.33,6.7-7.86,6.7-13.29V446.44c0-2.64.86-7,0-9.51-.93-2.76-5.4-5.79-7.45-7.84l-23.44-23.45-46.1-46.1c-2.43-2.43-2.66-2.24-6.14-2.24H372.17c-5.68,0-12.17-.9-15.94,4.5-2.13,3.06-1.88,6.44-1.88,9.91V562.36q0,51.89,0,103.78c0,6.51,3.2,12.11,10.48,12.56C364.82,678.7,364.85,678,364.83,678Z" transform="translate(-353.71 -84.75)"/><path class="cls-2" d="M394,582.28a13,13,0,0,0-11.72,17c2.1,6.3,7.88,8.46,13.89,8.46H536.49c9,0,18.11.32,27.13,0,17-.61,16.5-25.13-.31-25.44-27.25-.5-54.56,0-81.81,0H406.87c-3.64,0-7.66-.48-11.28,0a12.05,12.05,0,0,1-1.59,0s0,.73,0,.73H555c2.82,0,5.66-.09,8.48,0,10.22.33,17.44,12.14,9.22,20.36C567.14,609,555.38,607,548.2,607H406.59c-8.49,0-21.91,2-24.48-9.08-1.85-8,4.2-14.47,11.89-14.9C394,583,394,582.29,394,582.28Z" transform="translate(-353.71 -84.75)"/><path class="cls-2" d="M394,521.28a13,13,0,0,0-11.72,17c2.1,6.3,7.88,8.46,13.89,8.46H536.49c9,0,18.11.32,27.13,0,17-.61,16.5-25.13-.31-25.44-27.25-.5-54.56,0-81.81,0H406.87c-3.64,0-7.66-.48-11.28,0a12.05,12.05,0,0,1-1.59,0s0,.73,0,.73H555c2.82,0,5.66-.09,8.48,0,10.22.33,17.44,12.14,9.22,20.36C567.14,548,555.38,546,548.2,546H406.59c-8.49,0-21.91,2-24.48-9.08-1.85-8,4.2-14.47,11.89-14.9C394,522,394,521.29,394,521.28Z" transform="translate(-353.71 -84.75)"/><path class="cls-2" d="M394,460.28a13,13,0,0,0-11.72,17c2.1,6.3,7.88,8.46,13.89,8.46H536.49c9,0,18.11.32,27.13,0,17-.61,16.5-25.13-.31-25.44-27.25-.5-54.56,0-81.81,0H406.87c-3.64,0-7.66-.48-11.28,0a12.05,12.05,0,0,1-1.59,0s0,.73,0,.73H555c2.82,0,5.66-.09,8.48,0,10.22.33,17.44,12.14,9.22,20.36C567.14,487,555.38,485,548.2,485H406.59c-8.49,0-21.91,2.05-24.48-9.08-1.85-8,4.2-14.47,11.89-14.9C394,461,394,460.29,394,460.28Z" transform="translate(-353.71 -84.75)"/></g><path class="cls-6" d="M534.56,357.31H364.83A10.86,10.86,0,0,0,354,368.14V667.86a10.86,10.86,0,0,0,10.83,10.83H603.17A10.86,10.86,0,0,0,614,667.86V436.75Zm37.92,246.17A12,12,0,0,1,564,607H394a12,12,0,0,1,0-24H564a12,12,0,0,1,8.48,20.48Zm0-61A12,12,0,0,1,564,546H394a12,12,0,0,1,0-24H564a12,12,0,0,1,8.48,20.48Zm0-61A12,12,0,0,1,564,485H394a12,12,0,0,1,0-24H564a12,12,0,0,1,8.48,20.48Z" transform="translate(-353.71 -84.75)"/><g class="cls-7"><path class="cls-2" d="M572.48,481.42c-6.13,5.38-17,3.52-24.59,3.52h-141c-8.1,0-19.67,2-23.8-7.06-4.3-9.45,3.9-16.72,12.52-16.82,3.48,0,7,0,10.45,0H560.1c3.24,0,6.4-.21,9.39,1.36,7.2,3.76,8.21,13.05,3,19,0,0,0,.1,0,.12,5.37-6.12,4.58-15.83-3.54-19.53-2.94-1.34-6.2-1.07-9.35-1.07H416.74c-7.54,0-15.2-.41-22.73,0-8.35.45-14.24,8.68-11.17,16.48,2.28,5.78,7.67,7.64,13.33,7.64H483.5c26.64,0,53.38.68,80,0a13.44,13.44,0,0,0,9-3.52S572.46,481.44,572.48,481.42Z" transform="translate(-353.71 -84.75)"/><path class="cls-2" d="M572.48,542.42c-6.13,5.38-17,3.52-24.59,3.52h-141c-8.1,0-19.67,2-23.8-7.06-4.3-9.45,3.9-16.72,12.52-16.82,3.48,0,7,0,10.45,0H560.1c3.24,0,6.4-.21,9.39,1.36,7.2,3.76,8.21,13.05,3,19,0,0,0,.1,0,.12,5.37-6.12,4.58-15.83-3.54-19.53-2.94-1.34-6.2-1.07-9.35-1.07H416.74c-7.54,0-15.2-.41-22.73,0-8.35.45-14.24,8.68-11.17,16.48,2.28,5.78,7.67,7.64,13.33,7.64H483.5c26.64,0,53.38.68,80,0a13.44,13.44,0,0,0,9-3.52S572.46,542.44,572.48,542.42Z" transform="translate(-353.71 -84.75)"/><path class="cls-2" d="M572.48,603.42c-6.13,5.38-17,3.52-24.59,3.52h-141c-8.1,0-19.67,2-23.8-7.06-4.3-9.45,3.9-16.72,12.52-16.82,3.48,0,7,0,10.45,0H560.1c3.24,0,6.4-.21,9.39,1.36,7.2,3.76,8.21,13.05,3,19,0,0,0,.1,0,.12,5.37-6.12,4.58-15.83-3.54-19.53-2.94-1.34-6.2-1.07-9.35-1.07H416.74c-7.54,0-15.2-.41-22.73,0-8.35.45-14.24,8.68-11.17,16.48,2.28,5.78,7.67,7.64,13.33,7.64H483.5c26.64,0,53.38.68,80,0a13.44,13.44,0,0,0,9-3.52S572.46,603.44,572.48,603.42Z" transform="translate(-353.71 -84.75)"/><path class="cls-2" d="M534.56,357.25H417.48c-17.05,0-34.12-.19-51.17,0-12.92.14-12.31,10.82-12.31,20V641c0,8.89-.46,17.92,0,26.8.73,14.08,18.49,10.92,28.12,10.92H585.88c9.61,0,27.41,3.15,28.12-10.91.55-10.81,0-21.78,0-32.6V439.91c0-2,.22-2.58-.8-4-1.52-2.13-4-4-5.82-5.82l-10.13-10.13L545.3,368l-10.74-10.74s0,.1,0,.12l35.85,35.85,26.25,26.25c5.35,5.35,11.43,10.48,16.28,16.29,1.47,1.75,1.06,3,1.06,5.56V658.09c0,3.21.18,6.47,0,9.68-.47,8.41-7.12,10.86-14.15,10.86H408.24c-13.82,0-27.65.09-41.47,0-6.86,0-12.43-3.63-12.77-11.17-.14-3.15,0-6.34,0-9.49V397.42c0-9.62-.48-19.39,0-29,.41-8.21,6.73-11.05,13.8-11.05H534.56Z" transform="translate(-353.71 -84.75)"/></g></g></g></svg>