<?xml version="1.0" encoding="iso-8859-1"?>
<!-- Generator: Adobe Illustrator 19.0.0, SVG Export Plug-In . SVG Version: 6.00 Build 0)  -->
<svg xmlns="http://www.w3.org/2000/svg" xmlns:xlink="http://www.w3.org/1999/xlink" version="1.1" id="Layer_1" x="0px" y="0px" viewBox="0 0 512 512" style="enable-background:new 0 0 512 512;" xml:space="preserve" width="512" height="512">
<g>
	<g>
		<g>
			<g>
				<path style="fill:#345863;" d="M114.65,511.232l-12.503-5.343c-4.832-2.065-7.075-7.655-5.01-12.487l55.668-130.268      l29.999,12.82l-55.668,130.268C125.072,511.054,119.482,513.297,114.65,511.232z"/>
				<path style="fill:#345863;" d="M273.803,511.232l12.503-5.343c4.832-2.065,7.075-7.655,5.01-12.487l-55.668-130.268      l-29.999,12.82l55.668,130.268C263.381,511.054,268.971,513.297,273.803,511.232z"/>
			</g>
			<path style="fill:#676A75;" d="M269.928,383.939H121.111c-11.651,0-21.096-9.445-21.096-21.096v-44.079h191.009v44.079     C291.024,374.494,281.579,383.939,269.928,383.939z"/>
		</g>
		<g>
			<g>
				<g>
					<path style="fill:#F43B45;" d="M453.467,333.173l-83.588-53.754v-64.963l83.588-53.754c8.751-5.628,20.262,0.656,20.262,11.06       v150.351C473.729,332.517,462.218,338.8,453.467,333.173z"/>
					<path style="fill:#D6D6D6;" d="M371.912,319.239h-37.965V174.635h37.965c7.241,0,13.111,5.87,13.111,13.111v118.383       C385.023,313.369,379.153,319.239,371.912,319.239z"/>
					<path style="fill:#345863;" d="M334.441,351.352H57.57c-10.659,0-19.299-8.641-19.299-19.299V161.822       c0-10.659,8.641-19.299,19.299-19.299h276.87c10.659,0,19.299,8.641,19.299,19.299v170.231       C353.74,342.711,345.099,351.352,334.441,351.352z"/>
					<path style="fill:#1E4751;" d="M334.441,142.522h-34.056v208.829h34.056c10.659,0,19.299-8.641,19.299-19.299V161.822       C353.74,151.163,345.099,142.522,334.441,142.522z"/>
				</g>
				<g>
					<circle style="fill:#EDEDED;" cx="266.824" cy="100.266" r="60.401"/>
					<path style="fill:#D6D6D6;" d="M266.824,39.865c-9.602,0-18.675,2.251-26.736,6.238c19.944,9.864,33.665,30.407,33.665,54.163       s-13.721,44.3-33.665,54.164c8.061,3.987,17.134,6.238,26.736,6.238c33.359,0,60.401-27.043,60.401-60.401       C327.226,66.907,300.183,39.865,266.824,39.865z"/>
					<path style="fill:#F43B45;" d="M266.824,118.536c-10.074,0-18.27-8.196-18.27-18.27s8.196-18.271,18.27-18.271       s18.271,8.197,18.271,18.271S276.898,118.536,266.824,118.536z"/>
					<circle style="fill:#EDEDED;" cx="127.484" cy="80.333" r="80.333"/>
					<path style="fill:#D6D6D6;" d="M127.484,0c-9.353,0-18.324,1.615-26.672,4.553c31.253,11,53.662,40.766,53.662,75.78       c0,35.014-22.409,64.78-53.662,75.78c8.348,2.938,17.319,4.553,26.672,4.553c44.367,0,80.333-35.967,80.333-80.334       C207.818,35.966,171.851,0,127.484,0z"/>
					<path style="fill:#F43B45;" d="M127.484,102.047c-11.973,0-21.714-9.741-21.714-21.714s9.741-21.714,21.714-21.714       s21.714,9.741,21.714,21.714S139.457,102.047,127.484,102.047z"/>
				</g>
			</g>
		</g>
		<g>
			<path style="fill:#EDEDED;" d="M138.102,214.78h-57.67c-4.268,0-7.726-3.459-7.726-7.726c0-4.268,3.459-7.726,7.726-7.726h57.67     c4.268,0,7.726,3.459,7.726,7.726C145.828,211.321,142.369,214.78,138.102,214.78z"/>
		</g>
		<g>
			<path style="fill:#EDEDED;" d="M138.102,248.371h-57.67c-4.268,0-7.726-3.459-7.726-7.726s3.459-7.726,7.726-7.726h57.67     c4.268,0,7.726,3.459,7.726,7.726S142.369,248.371,138.102,248.371z"/>
		</g>
	</g>
</g>















</svg>
