<svg xmlns="http://www.w3.org/2000/svg" viewBox="0 0 225 196.81"><defs><style>.cls-1{fill:#f7941d;stroke:#f15a29;stroke-miterlimit:10;stroke-width:12px;}</style></defs><title>Asset 8</title><g id="Layer_2" data-name="Layer 2"><g id="Layer_1-2" data-name="Layer 1"><path class="cls-1" d="M189.5,6H35.5A29.5,29.5,0,0,0,6,35.5v81A29.5,29.5,0,0,0,35.5,146H94a30.71,30.71,0,0,1,30.71,30.71V188A2.85,2.85,0,0,0,129.5,190l42.13-40.74a11.58,11.58,0,0,1,8.05-3.26h9.82A29.5,29.5,0,0,0,219,116.5v-81A29.5,29.5,0,0,0,189.5,6Zm-133,83.16a17.25,17.25,0,1,1,15.4-15.4A17.25,17.25,0,0,1,56.51,89.16Zm55.75,0a17.25,17.25,0,1,1,15.4-15.4A17.25,17.25,0,0,1,112.26,89.16Zm55.75,0a17.25,17.25,0,1,1,15.4-15.4A17.25,17.25,0,0,1,168,89.16Z"/></g></g></svg>