<svg xmlns="http://www.w3.org/2000/svg" viewBox="0 0 638.8 550.1"><defs><style>.cls-1{fill:#db2423;}.cls-2{fill:#b81c1b;}.cls-3{fill:#f3a377;}.cls-4{fill:#889c3c;}.cls-5{fill:#5c6e26;}.cls-6{fill:#ccbf67;}.cls-7{fill:#dc821a;}.cls-8{fill:#f7941d;}.cls-9{fill:#d97723;}.cls-10{fill:#fdb913;}.cls-11{fill:#852d00;}.cls-12{fill:#661d00;}.cls-13{fill:#fcb216;}.cls-14{fill:#ffd791;}.cls-15{fill:#c46c1e;}</style></defs><title>Asset 1</title><g id="Layer_2" data-name="Layer 2"><g id="Layer_1-2" data-name="Layer 1"><path id="_Path_" data-name="&lt;Path&gt;" class="cls-1" d="M37.1,204.2a6.27,6.27,0,0,0-6.3,6.3v7.4a6.27,6.27,0,0,0,6.3,6.3H161.7l19.9-19.9H37.1Z"/><path id="_Path_2" data-name="&lt;Path&gt;" class="cls-2" d="M302.5,204.2H181.6l-19.9,19.9H302.6a6.27,6.27,0,0,0,6.3-6.3v-7.3A6.42,6.42,0,0,0,302.5,204.2Z"/><polygon id="_Path_3" data-name="&lt;Path&gt;" class="cls-3" points="488 204.2 389.5 204.2 377 224.1 475 224.1 488 204.2"/><path id="_Path_4" data-name="&lt;Path&gt;" class="cls-1" d="M309.9,204.2a6.27,6.27,0,0,0-6.3,6.3v7.4a6.27,6.27,0,0,0,6.3,6.3H377l12.5-19.9H309.9Z"/><path id="_Path_5" data-name="&lt;Path&gt;" class="cls-2" d="M575.4,204.2H488l-12.9,19.9H575.4a6.27,6.27,0,0,0,6.3-6.3v-7.3A6.27,6.27,0,0,0,575.4,204.2Z"/><path id="_Path_6" data-name="&lt;Path&gt;" class="cls-4" d="M37.1,411.4a6.27,6.27,0,0,0-6.3,6.3v7.4a6.27,6.27,0,0,0,6.3,6.3H161.7l19.9-19.9H37.1Z"/><path id="_Path_7" data-name="&lt;Path&gt;" class="cls-5" d="M302.5,411.4H181.6l-19.9,19.9H302.6a6.27,6.27,0,0,0,6.3-6.3v-7.4A6.41,6.41,0,0,0,302.5,411.4Z"/><polygon id="_Path_8" data-name="&lt;Path&gt;" class="cls-6" points="467.6 411.4 369.2 411.4 356.7 431.3 454.7 431.3 467.6 411.4"/><path id="_Path_9" data-name="&lt;Path&gt;" class="cls-4" d="M289.6,411.4a6.27,6.27,0,0,0-6.3,6.3v7.4a6.27,6.27,0,0,0,6.3,6.3h67.1l12.5-19.9H289.6Z"/><path id="_Path_10" data-name="&lt;Path&gt;" class="cls-5" d="M555.1,411.4H467.7l-12.9,19.9H555.1a6.27,6.27,0,0,0,6.3-6.3v-7.4A6.39,6.39,0,0,0,555.1,411.4Z"/><g id="_Group_" data-name="&lt;Group&gt;"><path id="_Path_11" data-name="&lt;Path&gt;" class="cls-7" d="M434.6,0H204.2C91.4,0,0,91.4,0,204.2H638.8C638.8,91.4,547.4,0,434.6,0Z"/><path id="_Path_12" data-name="&lt;Path&gt;" class="cls-8" d="M638.8,204.2A204.17,204.17,0,0,0,434.6,0H204.2C91.4,0,0,91.4,0,204.2Z"/><path id="_Path_13" data-name="&lt;Path&gt;" class="cls-9" d="M524.6,204.2A204.17,204.17,0,0,0,320.4,0H204.2C91.4,0,0,91.4,0,204.2Z"/><path id="_Path_14" data-name="&lt;Path&gt;" class="cls-10" d="M205.9,82.9H173a14.08,14.08,0,0,1-14.1-14.1h0A14.08,14.08,0,0,1,173,54.7h32.9A14.08,14.08,0,0,1,220,68.8h0A14.08,14.08,0,0,1,205.9,82.9Z"/><path id="_Path_15" data-name="&lt;Path&gt;" class="cls-10" d="M339.9,82.9H307a14.08,14.08,0,0,1-14.1-14.1h0A14.08,14.08,0,0,1,307,54.7h32.9A14.08,14.08,0,0,1,354,68.8h0A14.08,14.08,0,0,1,339.9,82.9Z"/><path id="_Path_16" data-name="&lt;Path&gt;" class="cls-10" d="M473.9,82.9H441a14.08,14.08,0,0,1-14.1-14.1h0A14.08,14.08,0,0,1,441,54.7h32.9A14.08,14.08,0,0,1,488,68.8h0A14.08,14.08,0,0,1,473.9,82.9Z"/><path id="_Path_17" data-name="&lt;Path&gt;" class="cls-10" d="M421.3,147.1H388.4A14.08,14.08,0,0,1,374.3,133h0a14.08,14.08,0,0,1,14.1-14.1h32.9A14.08,14.08,0,0,1,435.4,133h0A14.15,14.15,0,0,1,421.3,147.1Z"/><path id="_Path_18" data-name="&lt;Path&gt;" class="cls-10" d="M275.9,147.1H243A14.08,14.08,0,0,1,228.9,133h0A14.08,14.08,0,0,1,243,118.9h32.9A14.08,14.08,0,0,1,290,133h0A14.08,14.08,0,0,1,275.9,147.1Z"/></g><g id="_Group_2" data-name="&lt;Group&gt;"><g id="_Group_3" data-name="&lt;Group&gt;"><path id="_Path_19" data-name="&lt;Path&gt;" class="cls-11" d="M594.4,389.6H44.5a14.94,14.94,0,0,1-14.9-14.9V350.8a14.94,14.94,0,0,1,14.9-14.9H594.4a14.94,14.94,0,0,1,14.9,14.9v23.9A14.94,14.94,0,0,1,594.4,389.6Z"/><path id="_Path_20" data-name="&lt;Path&gt;" class="cls-11" d="M609.2,352.8v19.9c0,9.3-5.9,16.9-13.1,16.9H42.7c-7.2,0-13.1-7.6-13.1-16.9V352.8c0-9.3,5.9-16.9,13.1-16.9H596.2C603.4,335.9,609.2,343.5,609.2,352.8Z"/><path id="_Path_21" data-name="&lt;Path&gt;" class="cls-12" d="M570.4,374.6v15H42.7c-7.2,0-13.1-7.6-13.1-16.9v-15H557.3C564.5,357.7,570.4,365.2,570.4,374.6Z"/><path id="_Path_22" data-name="&lt;Path&gt;" class="cls-11" d="M549,364.9a2.88,2.88,0,0,0-1.9.5,4.88,4.88,0,0,0-1.7,3.8,4.72,4.72,0,0,0,1.7,3.8,2.24,2.24,0,0,0,1.9.5c2,.6,4.2-1.4,4.2-4.3S551,364.3,549,364.9Z"/></g><g id="_Group_4" data-name="&lt;Group&gt;"><path id="_Path_23" data-name="&lt;Path&gt;" class="cls-4" d="M579.6,301.1H71.1a9.56,9.56,0,0,0-9.5,9.5v2.1h-8a9.56,9.56,0,0,0-9.5,9.5v4.2a9.56,9.56,0,0,0,9.5,9.5h38a48.29,48.29,0,0,0,88.8,26.3c10.8-16.6,29.6-26.3,49.5-26.3h3.5c16.4,0,31.7,7.1,43.3,18.6a26.23,26.23,0,0,0,18.6,7.7,25.94,25.94,0,0,0,19.7-8.9,50.43,50.43,0,0,1,37.7-17.5h28a51,51,0,0,1,34.1,13.6,26.18,26.18,0,0,0,35.2,0c10.1-9.1,23.5-13.6,37-13.6h74.9a9.56,9.56,0,0,0,9.5-9.5v-2.1h8a9.56,9.56,0,0,0,9.5-9.5v-4.2A9.18,9.18,0,0,0,579.6,301.1Z"/><path id="_Path_24" data-name="&lt;Path&gt;" class="cls-5" d="M412.8,330H80.4a9.56,9.56,0,0,1-9.5-9.5v-4.2a9.56,9.56,0,0,1,9.5-9.5H412.9a9.56,9.56,0,0,1,9.5,9.5v4.2A9.65,9.65,0,0,1,412.8,330Z"/><path id="_Path_25" data-name="&lt;Path&gt;" class="cls-5" d="M489.7,330h-38a9.56,9.56,0,0,1-9.5-9.5v-4.2a9.56,9.56,0,0,1,9.5-9.5h38a9.56,9.56,0,0,1,9.5,9.5v4.2A9.56,9.56,0,0,1,489.7,330Z"/></g><g id="_Group_5" data-name="&lt;Group&gt;"><path id="_Path_26" data-name="&lt;Path&gt;" class="cls-13" d="M570.8,411.4H62.3a9.56,9.56,0,0,1-9.5-9.5v-4.2a9.56,9.56,0,0,1,9.5-9.5H570.8a9.56,9.56,0,0,1,9.5,9.5v4.2A9.5,9.5,0,0,1,570.8,411.4Z"/><path id="_Path_27" data-name="&lt;Path&gt;" class="cls-14" d="M580.3,399.8A15,15,0,0,1,578,408c-1.4,2.1-3.3,3.4-5.4,3.4a15.24,15.24,0,0,0,1.2-6.2c0-6.4-3.5-11.6-7.8-11.6H54a12.81,12.81,0,0,1,1.1-2c1.4-2.1,3.3-3.4,5.5-3.4h512C576.8,388.1,580.3,393.3,580.3,399.8Z"/></g><g id="_Group_6" data-name="&lt;Group&gt;"><path id="_Path_28" data-name="&lt;Path&gt;" class="cls-13" d="M570.8,247.4H62.3a9.56,9.56,0,0,1-9.5-9.5v-4.2a9.56,9.56,0,0,1,9.5-9.5H570.8a9.56,9.56,0,0,1,9.5,9.5v4.2A9.5,9.5,0,0,1,570.8,247.4Z"/><path id="_Path_29" data-name="&lt;Path&gt;" class="cls-14" d="M580.3,235.7a15,15,0,0,1-2.3,8.2c-1.4,2.1-3.3,3.4-5.4,3.4a15.24,15.24,0,0,0,1.2-6.2c0-6.4-3.5-11.6-7.8-11.6H54a12.81,12.81,0,0,1,1.1-2c1.4-2.1,3.3-3.4,5.5-3.4h512C576.8,224.1,580.3,229.3,580.3,235.7Z"/></g><g id="_Group_7" data-name="&lt;Group&gt;"><path id="_Path_30" data-name="&lt;Path&gt;" class="cls-11" d="M594.4,301.1H44.5a14.94,14.94,0,0,1-14.9-14.9V262.3a14.94,14.94,0,0,1,14.9-14.9H594.4a14.94,14.94,0,0,1,14.9,14.9v23.9A15,15,0,0,1,594.4,301.1Z"/><path id="_Path_31" data-name="&lt;Path&gt;" class="cls-11" d="M609.2,264.3v19.9c0,9.3-5.9,16.9-13.1,16.9H42.7c-7.2,0-13.1-7.6-13.1-16.9V264.3c0-9.3,5.9-16.9,13.1-16.9H596.2C603.4,247.4,609.2,254.9,609.2,264.3Z"/><path id="_Path_32" data-name="&lt;Path&gt;" class="cls-12" d="M570.4,286v15H42.7c-7.2,0-13.1-7.6-13.1-16.9v-15H557.3C564.5,269.1,570.4,276.7,570.4,286Z"/><path id="_Path_33" data-name="&lt;Path&gt;" class="cls-11" d="M549,276.3a2.88,2.88,0,0,0-1.9.5,4.88,4.88,0,0,0-1.7,3.8,4.72,4.72,0,0,0,1.7,3.8,2.24,2.24,0,0,0,1.9.5c2,.6,4.2-1.4,4.2-4.3S551,275.7,549,276.3Z"/></g></g><g id="_Group_8" data-name="&lt;Group&gt;"><path id="_Path_34" data-name="&lt;Path&gt;" class="cls-8" d="M619.3,486.1v9.2c0,30.3-23,54.8-51.5,54.8H71c-28.4,0-51.5-24.5-51.5-54.8v-9.2c0-30.3,23.1-54.8,51.5-54.8H567.8C596.3,431.3,619.3,455.9,619.3,486.1Z"/><path id="_Path_35" data-name="&lt;Path&gt;" class="cls-15" d="M475.2,486.1v9.2c0,30.3-23,54.8-51.5,54.8H71c-28.4,0-51.5-24.5-51.5-54.8v-9.2c0-30.3,23.1-54.8,51.5-54.8H423.7C452.1,431.3,475.2,455.9,475.2,486.1Z"/></g></g></g></svg>