<svg xmlns="http://www.w3.org/2000/svg" viewBox="0 0 791 471"><defs><style>.cls-1{fill:#ff7816;}.cls-2{fill:#ff4b00;}.cls-3{fill:#76e2f8;}.cls-4{fill:#25d9f8;}.cls-5{fill:#ececf1;}.cls-6{fill:#e2e2e7;}.cls-7{fill:#5a5a5a;}</style></defs><title>Asset 1</title><g id="Layer_2" data-name="Layer 2"><g id="Layer_1-2" data-name="Layer 1"><g id="Layer_3" data-name="Layer 3"><path class="cls-1" d="M648.86,190.61a77.61,77.61,0,0,0-48.49-48.46,80.75,80.75,0,0,0-83.22,18.59L512,165.89v64.63l35-35,2.42-2.43A34.28,34.28,0,0,1,598,241.53L595.53,244,512,327.47v56.28a79.51,79.51,0,0,0,25.5-17.14l92.76-92.76a78,78,0,0,0,18.68-29.93A82.1,82.1,0,0,0,648.86,190.61Z"/><path class="cls-2" d="M648.94,243.92a78,78,0,0,1-18.68,29.93L537.5,366.61A79.51,79.51,0,0,1,512,383.75V327.47L595.53,244l2.42-2.42a34.24,34.24,0,0,0,0-48.48l32.31-32.31a78.24,78.24,0,0,1,18.6,29.87A82.1,82.1,0,0,1,648.94,243.92Z"/><path class="cls-3" d="M767.61,136.5l-88.87,88.87a79.5,79.5,0,0,1-131.69-29.89l2.42-2.43a34.24,34.24,0,0,1,48.48,0,34.23,34.23,0,0,0,48.47,0l88.87-88.87a34.27,34.27,0,1,0-48.47-48.47l-86.45,86.44a79.47,79.47,0,0,0-53.32,0,78.58,78.58,0,0,1,18.58-29.89L654.5,23.39A80,80,0,1,1,767.61,136.5Z"/><path class="cls-4" d="M767.61,136.5l-88.87,88.87a80.76,80.76,0,0,1-113.11,0L598,193.05a34.21,34.21,0,0,0,48.47,0l88.87-88.87a34.23,34.23,0,0,0,0-48.47l32.32-32.32A80.06,80.06,0,0,1,767.61,136.5Z"/></g><g id="Layer_2-2" data-name="Layer 2"><path class="cls-3" d="M512,36V141l-30,30H30L0,141V36A14.85,14.85,0,0,1,15,21H497A14.85,14.85,0,0,1,512,36Z"/><path class="cls-4" d="M512,36V141l-30,30H256V21H497A14.85,14.85,0,0,1,512,36Z"/><path class="cls-5" d="M256,171v30H436a15,15,0,0,1,0,30H256v71.4l16.5-33a15,15,0,1,1,27,13.2l-43.5,87V471H15A14.85,14.85,0,0,1,0,456V141H512l-30,30Z"/><path class="cls-6" d="M482,171H256v30H436a15,15,0,0,1,0,30H256v71.4l16.5-33a15,15,0,1,1,27,13.2l-43.5,87V471H497a14.85,14.85,0,0,0,15-15V141ZM416.61,346.61l-60,60a15,15,0,0,1-21.22-21.22L384.79,336l-49.4-49.39a15,15,0,0,1,21.22-21.22L401,309.78l15.61,15.61A15,15,0,0,1,416.61,346.61Z"/><path class="cls-6" d="M299.5,282.6l-43.5,87V302.4l16.5-33a15,15,0,1,1,27,13.2Z"/><path class="cls-6" d="M451,216a14.85,14.85,0,0,1-15,15H256V201H436A14.85,14.85,0,0,1,451,216Z"/><polygon class="cls-6" points="512 141 482 171 256 171 256 141 512 141"/><path class="cls-1" d="M155.4,406.6l-60-60a15,15,0,0,1,0-21.21l60-60a15,15,0,0,1,21.21,21.21L127.21,336l49.4,49.39C190.83,399.61,169.23,420.44,155.4,406.6Z"/><path class="cls-1" d="M299.5,282.6l-60,120a15,15,0,0,1-27-13.2l60-120a15,15,0,1,1,27,13.2Z"/><path class="cls-2" d="M416.61,346.61l-60,60a15,15,0,0,1-21.22-21.22L384.79,336l-49.4-49.39a15,15,0,0,1,21.22-21.22L401,309.78l15.61,15.61A15,15,0,0,1,416.61,346.61Z"/><path class="cls-7" d="M226,111H76a15,15,0,0,1,0-30H226a15,15,0,0,1,0,30Z"/><path class="cls-2" d="M299.5,282.6l-43.5,87V302.4l16.5-33a15,15,0,1,1,27,13.2Z"/><circle class="cls-2" cx="316" cy="96" r="15"/><circle class="cls-2" cx="376" cy="96" r="15"/><circle class="cls-2" cx="436" cy="96" r="15"/><path class="cls-1" d="M451,216a14.85,14.85,0,0,1-15,15H76a15,15,0,0,1,0-30H436A14.85,14.85,0,0,1,451,216Z"/><path class="cls-2" d="M451,216a14.85,14.85,0,0,1-15,15H256V201H436A14.85,14.85,0,0,1,451,216Z"/></g></g></g></svg>