<svg xmlns="http://www.w3.org/2000/svg" viewBox="0 0 492.29 574.9"><defs><style>.cls-1{isolation:isolate;}.cls-2,.cls-3,.cls-4{fill:#fff;}.cls-3{opacity:0.51;}.cls-3,.cls-4,.cls-5{mix-blend-mode:screen;}.cls-4{opacity:0.7;}.cls-5{opacity:0.49;}.cls-6{fill:none;stroke:#fff;stroke-miterlimit:1;stroke-width:0.59px;}.cls-7{opacity:0.58;}</style></defs><title>emaily-hero</title><g class="cls-1"><g id="Layer_1" data-name="Layer 1"><path class="cls-2" d="M628.5,634.5V394.79L540.21,306.5H461.5V169A11.51,11.51,0,0,1,473,157.5h73.57c-.05.79-.07,1.62-.07,2.5v25A10.51,10.51,0,0,0,557,195.5H741A10.51,10.51,0,0,0,751.5,185V160c0-.88,0-1.71-.07-2.5H825A11.51,11.51,0,0,1,836.5,169V623A11.51,11.51,0,0,1,825,634.5Z" transform="translate(-344.71 -82.21)"/><path class="cls-2" d="M825,158a11,11,0,0,1,11,11V623a11,11,0,0,1-11,11H629V394.59l-.29-.3-88-88-.3-.29H462V169a11,11,0,0,1,11-11h73c0,.64,0,1.3,0,2v25a11,11,0,0,0,11,11H741a11,11,0,0,0,11-11V160c0-.7,0-1.36,0-2h73m0-1H750.9c.07,1,.1,2,.1,3v25a10,10,0,0,1-10,10H557a10,10,0,0,1-10-10V160c0-1,0-2,.1-3H473a12,12,0,0,0-12,12V307h79l88,88V635H825a12,12,0,0,0,12-12V169a12,12,0,0,0-12-12Z" transform="translate(-344.71 -82.21)"/><path class="cls-2" d="M560.61,190.28a9.12,9.12,0,0,1-9.11-9.1v-24c0-1,0-2,.09-2.85.71-11.62,5.81-21.34,14.76-28.12,8.38-6.35,20-9.85,32.69-9.85h15.87v-.5c0-22.76,17.67-33.13,34.09-33.13s34.09,10.37,34.09,33.13v.5H699c12.7,0,24.31,3.5,32.69,9.85,9,6.78,14.05,16.5,14.76,28.11.06.91.09,1.84.09,2.86v24a9.12,9.12,0,0,1-9.11,9.1ZM649,103.81a20.68,20.68,0,1,0,20.68,20.68A20.71,20.71,0,0,0,649,103.81Z" transform="translate(-344.71 -82.21)"/><path class="cls-2" d="M649,83.21c16.18,0,33.59,10.21,33.59,32.63v1H699c12.59,0,24.09,3.46,32.39,9.75,8.83,6.69,13.86,16.28,14.56,27.76.06.88.09,1.8.09,2.81v24a8.61,8.61,0,0,1-8.61,8.6H560.61a8.61,8.61,0,0,1-8.61-8.6v-24c0-1,0-1.93.09-2.83.7-11.46,5.73-21.05,14.56-27.74,8.3-6.29,19.8-9.75,32.39-9.75h16.37v-1c0-22.42,17.41-32.63,33.59-32.63m0,62.46a21.18,21.18,0,1,0-21.18-21.18A21.2,21.2,0,0,0,649,145.67m0-63.46c-17.29,0-34.59,11.21-34.59,33.63H599c-25.55,0-46.45,13.72-47.94,38.43-.07.95-.1,1.91-.1,2.89v24a9.6,9.6,0,0,0,9.61,9.6H737.39a9.6,9.6,0,0,0,9.61-9.6v-24c0-1,0-1.94-.1-2.89-1.49-24.71-22.39-38.43-47.94-38.43H683.59c0-22.42-17.3-33.63-34.59-33.63Zm0,62.46a20.18,20.18,0,1,1,20.18-20.18A20.17,20.17,0,0,1,649,144.67Z" transform="translate(-344.71 -82.21)"/><path class="cls-2" d="M623,398.13V645.24a11.61,11.61,0,0,1-11.58,11.58H356.58A11.61,11.61,0,0,1,345,645.24V324.76a11.61,11.61,0,0,1,11.58-11.58H538.06Z" transform="translate(-344.71 -82.21)"/><path class="cls-3" d="M623,398.13V645.24a11.61,11.61,0,0,1-11.58,11.58H356.58A11.61,11.61,0,0,1,345,645.24V324.76a11.61,11.61,0,0,1,11.58-11.58H538.06Z" transform="translate(-344.71 -82.21)"/><path class="cls-4" d="M623,398.13V645.24a11.61,11.61,0,0,1-11.58,11.58H356.58A11.61,11.61,0,0,1,345,645.24V324.76a11.61,11.61,0,0,1,11.58-11.58H538.06Z" transform="translate(-344.71 -82.21)"/><g class="cls-5"><path class="cls-2" d="M356.58,656.1c-8.53-.49-11.22-7.24-11.22-14.45V344.41c0-10-3.57-29.75,11.22-30.51,13.66-.71,27.54,0,41.2,0H535.11c3.46,0,3.7.9,6.29,3.48l21,21,53.14,53.13c2,2.06,4.14,4.09,6.17,6.17,1,1.07.67.27.9,1.19,1,3.82,0,9.13,0,13V642.27c0,7.14-3.25,13.49-11.41,13.83-11.76.51-23.65,0-35.41,0H356.58v.73H603.47c3.34,0,7.22.48,10.52-.3,7.34-1.73,8.66-8.24,8.66-14.51V408.94c0-3,.92-7.69,0-10.58s-5.43-5.88-7.5-7.95l-25.07-25.06-49.67-49.68c-2.62-2.62-2.76-2.5-6.49-2.5H364.37c-6.23,0-13.35-.95-17.27,5.21-2.05,3.23-1.75,6.84-1.75,10.45V643.37c0,7,3.43,13,11.23,13.46C356.57,656.83,356.6,656.11,356.58,656.1Z" transform="translate(-344.71 -82.21)"/></g><path class="cls-6" d="M623,398.13V645.24a11.61,11.61,0,0,1-11.58,11.58H356.58A11.61,11.61,0,0,1,345,645.24V324.76a11.61,11.61,0,0,1,11.58-11.58H538.06Z" transform="translate(-344.71 -82.21)"/><g class="cls-7"><path class="cls-2" d="M623,398.13V639.39c0,6.25.26,12.86-6.5,16.19-3.55,1.74-8.25,1.18-12.11,1.18H393.63c-12.2,0-24.53.51-36.72,0-14.62-.62-11.91-17-11.91-27V330.45c0-4.47-.47-9.1,2.55-12.86,4.22-5.24,10.85-4.35,16.78-4.35H532.72c3,0,4.71-.63,6.78,1.45l17.92,17.91,54.48,54.48L623,398.19s0-.1,0-.13l-39.31-39.3L555.64,330.7l-11-11c-1.83-1.82-3.72-4.44-5.88-5.87s-5.38-.75-8.06-.75H361.56c-1.58,0-3.18-.07-4.76,0-6.63.3-11.46,4.94-11.8,11.59-.1,2,0,3.93,0,5.89V608.78c0,11.8-.17,23.62,0,35.42.1,7,4.53,12.38,11.84,12.68,3.86.16,7.77,0,11.64,0H605.42c5.48,0,11.11.53,15-4.35,2.94-3.66,2.55-7.87,2.55-12.18V398.13Z" transform="translate(-344.71 -82.21)"/></g></g></g></svg>